<svg fill="#000000" height="800px" width="800px" version="1.1" id="Layer_1" xmlns="http://www.w3.org/2000/svg" xmlns:xlink="http://www.w3.org/1999/xlink" 
	 viewBox="0 0 202.622 202.622" xml:space="preserve">
<g>
	<g>
		<path d="M198.724,0H101.31H3.897C1.745,0,0,1.745,0,3.897v159.759v35.069c0,2.152,1.745,3.897,3.897,3.897h97.414h97.414
			c2.152,0,3.897-1.745,3.897-3.897v-35.069V3.897C202.621,1.745,200.876,0,198.724,0z M97.414,194.828H7.793v-27.276h89.621
			V194.828z M97.414,159.759H7.793V7.793h89.621V159.759z M194.828,194.828h-89.621v-27.276h89.621V194.828z M194.828,159.759
			h-89.621V7.793h89.621V159.759z"/>
	</g>
</g>
</svg>